<?xml version="1.0" standalone="no"?><!DOCTYPE svg PUBLIC "-//W3C//DTD SVG 1.1//EN" "http://www.w3.org/Graphics/SVG/1.1/DTD/svg11.dtd"><svg t="1709449860096" class="icon" viewBox="0 0 1024 1024" version="1.1" xmlns="http://www.w3.org/2000/svg" p-id="120903" width="512" height="512" xmlns:xlink="http://www.w3.org/1999/xlink"><path d="M512 512m-512 0a512 512 0 1 0 1024 0 512 512 0 1 0-1024 0Z" fill="#FF625A" p-id="120904"></path><path d="M512 0a512 512 0 1 1 0 1024A512 512 0 0 1 512 0z m0 42.666667a469.333333 469.333333 0 1 0 0 938.666666 469.333333 469.333333 0 0 0 0-938.666666z" fill="#E44841" p-id="120905"></path><path d="M753.322667 270.677333a42.666667 42.666667 0 0 1 0 60.330667L572.416 512l180.906667 180.992a42.666667 42.666667 0 1 1-60.330667 60.330667L512 572.245333 331.093333 753.322667a42.666667 42.666667 0 1 1-60.330666-60.330667L451.584 512l-180.906667-180.906667a42.666667 42.666667 0 1 1 60.330667-60.330666L512 451.584l180.992-180.906667a42.666667 42.666667 0 0 1 60.330667 0z" fill="#4D0000" p-id="120906"></path></svg>