<?xml version="1.0" standalone="no"?><!DOCTYPE svg PUBLIC "-//W3C//DTD SVG 1.1//EN" "http://www.w3.org/Graphics/SVG/1.1/DTD/svg11.dtd"><svg t="1709449733628" class="icon" viewBox="0 0 1024 1024" version="1.1" xmlns="http://www.w3.org/2000/svg" p-id="118149" width="512" height="512" xmlns:xlink="http://www.w3.org/1999/xlink"><path d="M512 512m-512 0a512 512 0 1 0 1024 0 512 512 0 1 0-1024 0Z" fill="#29D143" p-id="118150"></path><path d="M512 0a512 512 0 1 1 0 1024A512 512 0 0 1 512 0z m0 42.666667a469.333333 469.333333 0 1 0 0 938.666666 469.333333 469.333333 0 0 0 0-938.666666z" fill="#2FAD32" p-id="118151"></path><path d="M290.133333 389.632a34.133333 34.133333 0 0 1 24.149334 9.984l310.101333 310.101333A34.133333 34.133333 0 0 1 600.234667 768H290.133333a34.133333 34.133333 0 0 1-34.133333-34.133333V423.765333c0-18.858667 15.36-34.133333 34.133333-34.133333zM733.866667 256c18.773333 0 34.133333 15.36 34.133333 34.133333v310.101334a34.133333 34.133333 0 0 1-58.282667 24.149333L399.616 314.282667A34.133333 34.133333 0 0 1 423.765333 256H733.866667z" fill="#2c2c2c" p-id="118152" data-spm-anchor-id="a313x.search_index.0.i42.1ae73a814AXmjM" class="selected"></path></svg>