<?xml version="1.0" standalone="no"?><!DOCTYPE svg PUBLIC "-//W3C//DTD SVG 1.1//EN" "http://www.w3.org/Graphics/SVG/1.1/DTD/svg11.dtd"><svg t="1709449938433" class="icon" viewBox="0 0 1024 1024" version="1.1" xmlns="http://www.w3.org/2000/svg" p-id="130888" width="512" height="512" xmlns:xlink="http://www.w3.org/1999/xlink"><path d="M232 252c-26.5 0-48 21.5-48 48v474c0 26.5 21.5 48 48 48h562c26.5 0 48-21.5 48-48V300c0-26.5-21.5-48-48-48H232z m0-36h562c46.4 0 84 37.6 84 84v474c0 46.4-37.6 84-84 84H232c-46.4 0-84-37.6-84-84V300c0-46.4 37.6-84 84-84z" fill="#5483E3" p-id="130889"></path><path d="M171.5 411.5c-9.9 0-18-8.1-18-18s8.1-18 18-18h683.6c9.9 0 18 8.1 18 18s-8.1 18-18 18H171.5z" fill="#5483E3" p-id="130890"></path><path d="M288 474h451c26.5 0 48 21.5 48 48v191c0 26.5-21.5 48-48 48H288c-26.5 0-48-21.5-48-48V522c0-26.5 21.5-48 48-48z" fill="#FFE1E1" p-id="130891"></path><path d="M249 318m-30 0a30 30 0 1 0 60 0 30 30 0 1 0-60 0Z" fill="#FF886F" p-id="130892"></path><path d="M340 318m-30 0a30 30 0 1 0 60 0 30 30 0 1 0-60 0Z" fill="#FFD300" p-id="130893"></path><path d="M431 318m-30 0a30 30 0 1 0 60 0 30 30 0 1 0-60 0Z" fill="#53CDA2" p-id="130894"></path></svg>