<?xml version="1.0" standalone="no"?><!DOCTYPE svg PUBLIC "-//W3C//DTD SVG 1.1//EN" "http://www.w3.org/Graphics/SVG/1.1/DTD/svg11.dtd"><svg t="1709449823836" class="icon" viewBox="0 0 1024 1024" version="1.1" xmlns="http://www.w3.org/2000/svg" p-id="119626" width="512" height="512" xmlns:xlink="http://www.w3.org/1999/xlink"><path d="M512 512m-512 0a512 512 0 1 0 1024 0 512 512 0 1 0-1024 0Z" fill="#FFC130" p-id="119627"></path><path d="M512 0a512 512 0 1 1 0 1024A512 512 0 0 1 512 0z m0 42.666667a469.333333 469.333333 0 1 0 0 938.666666 469.333333 469.333333 0 0 0 0-938.666666z" fill="#E29F1B" p-id="119628"></path><path d="M213.333333 469.333333h597.333334a42.666667 42.666667 0 0 1 0 85.333334h-597.333334a42.666667 42.666667 0 0 1 0-85.333334z" fill="#995700" p-id="119629"></path></svg>